<?xml version="1.0" encoding="utf-8"?>
<!-- Generator: Adobe Illustrator 25.0.0, SVG Export Plug-In . SVG Version: 6.00 Build 0)  -->
<svg version="1.1" id="图层_1" xmlns="http://www.w3.org/2000/svg" xmlns:xlink="http://www.w3.org/1999/xlink" x="0px" y="0px"
	 viewBox="0 0 33.2 33.2" style="enable-background:new 0 0 33.2 33.2;" xml:space="preserve">
<style type="text/css">
	.st0{fill:none;}
	.st1{fill:none;stroke:#000000;stroke-width:1.2;}
	.st2{fill:#1A1A1A;}
</style>
<rect id="canvas_background" x="0.6" y="0.6" class="st0" width="32" height="32"/>
<path id="svg_10" class="st1" d="M6.3,0.6h20.6c3.2,0,5.7,2.6,5.7,5.7v20.6c0,3.2-2.6,5.7-5.7,5.7H6.3c-3.2,0-5.7-2.6-5.7-5.7V6.3
	C0.6,3.2,3.2,0.6,6.3,0.6z"/>
<g>
	<path class="st2" d="M12.5,10c0.4,0,0.7,0.3,0.7,0.7c0,0.4-0.3,0.6-0.5,0.6H6.9l1.1,1.1c0.3,0.3,0.3,0.6,0.1,0.9l-0.1,0.1
		c-0.3,0.3-0.6,0.3-0.9,0.1v-0.1l-2.3-2.3c-0.5-0.5-0.2-1.1,0.4-1.2H12.5z"/>
	<path class="st2" d="M10.6,4.7l2.3,2.3c0.4,0.4,0.2,1.1-0.4,1.2H5.2C4.9,8.2,4.5,8,4.5,7.5c0-0.4,0.3-0.6,0.5-0.6h5.7l-1-1.1
		C9.5,5.5,9.5,5.2,9.7,4.9l0.1-0.1C9.9,4.6,10.4,4.5,10.6,4.7z"/>
</g>
</svg>
