<?xml version="1.0" encoding="UTF-8"?>
<svg width="34px" height="28px" viewBox="0 0 34 28" version="1.1" xmlns="http://www.w3.org/2000/svg" xmlns:xlink="http://www.w3.org/1999/xlink">
    <title>编组 2</title>
    <g id="图层-1" stroke="none" stroke-width="1" fill="none" fill-rule="evenodd">
        <g id="编组-2" transform="translate(1.000000, 1.000000)">
            <path d="M5.7,0 L26.3,0 C29.5,0 32,2.6 32,5.7 L32,20.3 C32,23.5 29.4,26 26.3,26 L5.7,26 C2.5,26 0,23.4 0,20.3 L0,5.7 C0,2.6 2.6,0 5.7,0 Z" id="svg_10" stroke="#000000" stroke-width="1.2"></path>
            <path d="M7.11046342,2.03369876 C7.11046342,2.03369876 9.40308948,1.570735 9.80180705,4.07677793 C9.80180705,4.07677793 9.96181871,5.55121684 8.96240163,6.17269536 C8.96240163,6.17269536 11.2576508,7.27475038 12,8.44725641 L12,12 L3,12 L3,8.44725641 C3,8.44725641 3.77907316,7.45591011 4.78635966,6.79668998 C5.21917808,6.51488596 5.69396677,6.28592019 6.16613232,6.21043697 C6.16613232,6.21043697 5.22925685,5.87716008 5.05392014,4.6831598 C5.05392014,4.6806437 4.99883416,2.35324439 7.11046342,2.03369876 Z" id="路径" stroke="#231815" stroke-width="0.5625" stroke-linecap="round" stroke-linejoin="round"></path>
            <line x1="4.5" y1="11.5" x2="4.5" y2="9.5801818" id="直线" stroke="#000000" stroke-width="0.56" stroke-linecap="square"></line>
            <line x1="10.5" y1="11.5" x2="10.5" y2="9.5801818" id="直线备份" stroke="#000000" stroke-width="0.56" stroke-linecap="square"></line>
            <path d="M4.77849024,6.99797857 C4.77849024,6.99797857 5.16466362,8.97370101 7.5,8.97370101 C9.83533638,8.97370101 10.4025066,6.99797857 10.4025066,6.99797857" id="路径" stroke="#231815" stroke-width="0.5625" stroke-linecap="round" stroke-linejoin="round"></path>
            <path d="M5.06178957,4.48187122 C5.06178957,4.48187122 6.70125328,3.88303767 6.88749636,3.43768666 C6.88749636,3.43768666 8.42465753,4.62780544 9.61031769,4.57496719 L9.80180705,4.57496719 C9.80180705,4.57496719 10.2949577,2.04124708 7.49868843,2.00098936 C7.49868843,2.00098936 5.34771204,1.96324775 5.06178957,4.48187122 Z" id="路径" fill="#231815" fill-rule="nonzero"></path>
        </g>
    </g>
</svg>